<?xml version="1.0" standalone="no"?>
<!DOCTYPE svg PUBLIC "-//W3C//DTD SVG 20010904//EN"
 "http://www.w3.org/TR/2001/REC-SVG-20010904/DTD/svg10.dtd">
<svg version="1.0" xmlns="http://www.w3.org/2000/svg"
 width="1600.000000pt" height="800.000000pt" viewBox="0 0 1600.000000 800.000000"
 preserveAspectRatio="xMidYMid meet">

<g transform="translate(0.000000,800.000000) scale(0.100000,-0.100000)"
fill="#000000" stroke="none">
<path d="M3425 5731 c-11 -5 -29 -19 -40 -31 -20 -22 -20 -36 -20 -1074 0
-835 3 -1056 13 -1073 34 -60 149 -71 200 -19 l27 26 0 1049 c0 1144 3 1086
-57 1117 -29 15 -91 18 -123 5z"/>
<path d="M5890 5113 c-268 -31 -476 -194 -557 -436 -27 -82 -27 -83 -28 -367
0 -246 2 -294 18 -350 64 -228 232 -392 467 -456 91 -25 348 -26 440 -1 137
37 254 107 284 171 23 49 20 81 -12 117 -21 24 -38 32 -75 36 -42 5 -53 2
-100 -29 -91 -61 -135 -79 -222 -90 -175 -24 -344 21 -439 115 -74 74 -126
202 -126 309 l0 48 570 0 571 0 26 26 25 25 -4 187 c-6 211 -18 267 -85 380
-141 237 -418 353 -753 315z m251 -227 c141 -30 254 -116 311 -236 25 -52 33
-82 36 -147 l5 -83 -472 0 c-370 0 -471 3 -472 13 -6 88 17 195 57 264 92 156
317 235 535 189z"/>
<path d="M7360 5101 c-235 -51 -394 -185 -476 -401 -28 -75 -28 -76 -32 -355
-4 -327 3 -382 70 -515 79 -159 230 -277 418 -327 102 -28 350 -25 453 5 152
44 269 126 283 198 7 40 -19 92 -57 111 -49 25 -101 16 -164 -28 -77 -56 -142
-79 -239 -86 -227 -16 -404 69 -480 231 -26 55 -46 146 -46 208 l0 38 563 0
564 0 22 24 c23 25 23 28 19 208 -4 156 -8 193 -27 248 -40 115 -81 181 -166
265 -134 134 -259 183 -490 191 -102 3 -148 0 -215 -15z m311 -215 c165 -35
282 -140 329 -294 11 -35 20 -88 20 -118 l0 -54 -465 0 -465 0 0 50 c0 122 47
237 125 307 114 104 285 145 456 109z"/>
<path d="M8980 5114 c-253 -29 -445 -145 -542 -330 -62 -117 -70 -161 -75
-420 -6 -247 3 -352 37 -453 67 -201 248 -361 460 -408 115 -25 350 -23 463 5
90 22 216 77 252 109 63 56 73 122 26 172 -42 44 -96 43 -171 -5 -97 -62 -173
-79 -345 -79 -170 0 -230 13 -311 67 -72 49 -122 115 -150 199 -25 72 -26 82
-25 329 0 230 2 262 21 322 37 121 130 208 265 251 58 18 93 22 200 21 150 0
225 -16 338 -69 83 -38 114 -42 156 -21 51 27 68 112 32 158 -39 49 -197 116
-326 137 -70 12 -255 21 -305 15z"/>
<path d="M13610 5113 c-79 -9 -170 -36 -247 -73 -148 -72 -275 -222 -318 -375
-13 -45 -18 -118 -22 -296 -7 -340 12 -451 103 -591 53 -82 115 -146 186 -192
210 -133 569 -138 787 -9 106 63 140 128 101 191 -23 38 -81 66 -117 57 -13
-3 -48 -21 -77 -41 -76 -50 -148 -74 -241 -81 -162 -11 -306 35 -387 126 -75
83 -124 213 -116 309 l3 43 530 -1 c292 0 546 3 564 6 58 12 65 37 64 212 -2
188 -13 242 -66 352 -52 107 -170 231 -263 278 -143 72 -322 103 -484 85z
m260 -235 c185 -45 310 -203 310 -395 0 -57 -2 -63 -22 -68 -13 -3 -219 -4
-458 -3 l-435 3 -3 42 c-5 64 14 151 48 220 86 176 318 259 560 201z"/>
<path d="M2035 5067 c-31 -31 -35 -41 -35 -86 0 -42 5 -56 29 -83 l29 -33 304
-5 c263 -4 307 -7 335 -22 103 -57 133 -218 57 -308 -54 -63 -61 -65 -379 -70
-255 -4 -293 -7 -316 -23 -49 -33 -63 -100 -34 -162 28 -57 40 -59 375 -65
327 -5 331 -6 389 -61 81 -76 80 -249 -2 -337 -12 -13 -40 -34 -62 -45 -38
-21 -57 -22 -350 -27 -170 -3 -318 -9 -328 -14 -44 -21 -63 -129 -31 -174 34
-49 53 -52 357 -52 248 0 293 2 360 19 96 25 140 48 207 108 107 96 160 215
160 358 0 139 -47 248 -141 329 l-42 35 41 54 c59 76 83 137 89 226 13 191
-93 365 -266 438 l-66 28 -323 3 -323 3 -34 -34z"/>
<path d="M1638 5061 l-33 -29 0 -725 c0 -583 3 -729 13 -749 38 -70 152 -79
204 -14 16 19 18 74 18 744 0 658 -2 726 -17 752 -21 36 -52 50 -108 50 -35 0
-52 -6 -77 -29z"/>
<path d="M5990 3024 l0 -64 115 0 115 0 2 -302 3 -303 68 -3 67 -3 0 290 c0
159 3 296 6 305 5 13 25 16 120 16 l114 0 0 65 0 66 -305 -2 -305 -1 0 -64z"/>
<path d="M6770 2720 l0 -370 274 0 274 0 4 58 c2 31 3 60 1 65 -3 4 -96 7
-209 7 l-204 0 0 85 0 85 175 0 175 0 0 65 0 65 -175 0 -175 0 0 90 0 90 205
0 205 0 0 65 0 65 -275 0 -275 0 0 -370z"/>
<path d="M7682 2948 c-104 -245 -231 -557 -234 -575 -3 -16 5 -18 66 -18 l70
0 29 73 29 72 173 0 172 0 28 -75 29 -75 73 0 c40 0 73 4 73 8 0 5 -22 60 -49
123 -26 63 -85 202 -131 309 -45 107 -93 219 -106 248 l-23 52 -69 0 -69 0
-61 -142z m197 -181 c28 -70 51 -132 51 -137 0 -6 -46 -10 -115 -10 -82 0
-115 3 -115 12 0 11 96 263 107 282 8 12 14 0 72 -147z"/>
<path d="M8350 2720 l0 -371 68 3 67 3 5 234 5 233 91 -163 c51 -90 97 -174
103 -186 9 -18 20 -23 51 -23 46 0 36 -12 171 217 46 79 87 143 92 143 4 0 7
-104 7 -230 l0 -231 73 3 72 3 0 365 0 365 -67 3 c-65 3 -67 2 -91 -30 -14
-18 -73 -117 -132 -220 -58 -103 -110 -190 -115 -193 -5 -3 -19 14 -31 37 -28
55 -196 345 -221 381 -18 25 -25 27 -84 27 l-64 0 0 -370z"/>
</g>
</svg>
